# xmcd CD database file
#
# Track frame offsets:
#	150
#	16147
#	26905
#	43970
#	63325
#	78510
#	95495
#	113705
#	132577
#	151070
#	169602
#	187042
#	199365
#	216527
#	234297
#	248225
#	262452
#	280785
#	297667
#	315170
#
# Disc length: 4415 seconds
#
# Revision: 0
# Processed by: cddbd v1.5PL3 Copyright (c) Steve Scherf et al.
# Submitted via: CDex 1.51
#
DISCID=2e113d14
DTITLE=高見知佳 - アイドル・ミラクルバイブルシリーズ (DISC-2)
DYEAR=2003
DGENRE=Pop
TTITLE0=ジャングル・ラブ
TTITLE1=Call me tonight
TTITLE2=ボーイ・フレンド
TTITLE3=今夜がその時
TTITLE4=ロマンティック・アドベンチャー
TTITLE5=ペーパー・ムーンに腰かけて
TTITLE6=赤い涙
TTITLE7=ピエレット
TTITLE8=夏を選んで
TTITLE9=エトセトラ
TTITLE10=くちびるヌード
TTITLE11=あてのない待ちぼうけ
TTITLE12=キャベツから恋が生まれれば
TTITLE13=Dancing doll・ミステリー
TTITLE14=上海エトランゼ
TTITLE15=月夜のワルツ
TTITLE16=深夜劇場
TTITLE17=悲しみよこんにちは
TTITLE18=怒濤の恋愛
TTITLE19=満月の夜君んちへ行ったよ
EXTD=YEAR: 2003
EXTT0=
EXTT1=
EXTT2=
EXTT3=
EXTT4=
EXTT5=
EXTT6=
EXTT7=
EXTT8=
EXTT9=
EXTT10=
EXTT11=
EXTT12=
EXTT13=
EXTT14=
EXTT15=
EXTT16=
EXTT17=
EXTT18=
EXTT19=
PLAYORDER=
